#!OML:ASF H:\Terrain\Patient Classification 1\Animal2\Wednesday\Animal2.ASF
:FULLY-SPECIFIED
:DEGREES
286
root 20.7508 16.959 -28.9595 41.3258 -2.47141 8.89525
lowerback 30.5139 -0.0562793 0.799411
upperback -2.16208 0.293961 0.358919
thorax -18.776 0.0661855 -0.167463
lowerneck 10.8747 15.366 16.7692
upperneck -29.9584 17.9326 -35.8408
head -4.8338 11.5895 -16.2502
rclavicle -2.54444e-014 -7.95139e-016
rhumerus -55.6569 -26.9201 -39.3955
rradius 18.9712
rwrist 16.7688
rhand -46.4902 25.1997
rfingers 7.12502
rthumb -19.2172 -3.87081
lclavicle -2.54444e-014 -7.95139e-016
lhumerus -59.9258 4.78006 80.5846
lradius 30.1617
lwrist 25.2955
lhand -17.0904 25.1732
lfingers 7.12502
lthumb 9.14812 54.9548
rfemur -68.9436 -8.02542 4.55515
rtibia 56.0155
rfoot -23.2594 -4.87041
rtoes -13.1124
lfemur -81.6404 4.87062 -12.8856
ltibia 42.9715
lfoot 17.9666 -1.49738
ltoes 23.686
287
root 20.7492 16.9058 -28.9399 41.5775 -2.62544 8.80241
lowerback 30.6621 -0.00892117 0.902039
upperback -2.19 0.392133 0.338958
thorax -18.8813 0.0946724 -0.289763
lowerneck 11.2685 15.3623 16.437
upperneck -30.3738 17.8738 -35.6816
head -5.12045 11.6047 -16.2793
rclavicle 6.36111e-015 -5.56597e-015
rhumerus -55.1374 -26.202 -41.7285
rradius 19.2376
rwrist 16.0747
rhand -45.5312 24.9708
rfingers 7.12502
rthumb -18.2947 -4.18889
lclavicle 6.36111e-015 -5.56597e-015
lhumerus -59.9467 4.79682 82.2226
lradius 30.3295
lwrist 24.5349
lhand -14.8996 24.1079
lfingers 7.12502
lthumb 11.2615 53.7856
rfemur -69.7465 -8.40685 5.05006
rtibia 56.7665
rfoot -23.3975 -4.6057
rtoes -13.4896
lfemur -81.8304 4.83986 -12.9865
ltibia 42.3217
lfoot 17.6983 -2.2552
ltoes 21.7639
288
root 20.7456 16.8633 -28.919 41.6836 -2.85007 8.51589
lowerback 30.8769 0.08466 0.95123
upperback -2.11588 0.542365 0.378929
thorax -18.8908 0.154369 -0.338582
lowerneck 11.567 15.4038 16.2112
upperneck -30.6403 17.8924 -35.6491
head -5.28801 11.6577 -16.3199
rclavicle -1.59028e-015 8.74653e-015
rhumerus -54.437 -25.3982 -44.1799
rradius 19.6345
rwrist 14.9983
rhand -44.3505 25.9996
rfingers 7.12502
rthumb -17.1586 -3.2628
lclavicle -1.59028e-015 8.74653e-015
lhumerus -59.8259 5.00744 83.6775
lradius 30.3309
lwrist 23.6243
lhand -12.86 22.7273
lfingers 7.12502
lthumb 13.2281 52.2876
rfemur -70.4035 -8.4921 5.61561
rtibia 57.4527
rfoot -23.6213 -4.52924
rtoes -14.3941
lfemur -81.802 4.91426 -12.8473
ltibia 41.8524
lfoot 17.3984 -2.84199
ltoes 19.7928
289
root 20.7413 16.8238 -28.8903 41.8558 -3.09368 8.19032
lowerback 30.7828 0.228936 0.922782
upperback -1.94397 0.716772 0.379876
thorax -18.6284 0.231622 -0.397308
lowerneck 11.4828 15.4604 16.334
upperneck -30.6923 17.9763 -35.7702
head -5.22663 11.7058 -16.36
rclavicle -1.74931e-014 7.95139e-016
rhumerus -53.7605 -24.8854 -46.5096
rradius 20.0149
rwrist 14.0294
rhand -43.168 27.4081
rfingers 7.12502
rthumb -16.0201 -1.94955
lclavicle -1.74931e-014 7.95139e-016
lhumerus -59.6032 5.1048 84.9569
lradius 30.4089
lwrist 22.606
lhand -11.1068 21.0833
lfingers 7.12502
lthumb 14.9176 50.5261
rfemur -71.0559 -8.56761 6.20186
rtibia 58.0791
rfoot -24.0023 -4.30512
rtoes -14.9322
lfemur -81.7967 5.01954 -12.6835
ltibia 41.5278
lfoot 17.198 -3.30014
ltoes 17.9677
290
root 20.7374 16.7799 -28.8556 42.0334 -3.34588 7.84343
lowerback 30.9386 0.309548 0.970582
upperback -1.93228 0.826212 0.301524
thorax -18.6855 0.266734 -0.560281
lowerneck 11.5681 15.5166 16.5016
upperneck -30.8207 18.0927 -35.7835
head -5.22281 11.7589 -16.3963
rclavicle -3.97569e-014 -2.38542e-015
rhumerus -53.3394 -24.4309 -48.5959
rradius 20.1971
rwrist 13.9605
rhand -41.6426 27.849
rfingers 7.12502
rthumb -14.5509 -1.62062
lclavicle -3.97569e-014 -2.38542e-015
lhumerus -59.7117 4.86447 86.3546
lradius 30.6676
lwrist 21.6555
lhand -9.72385 20.0739
lfingers 7.12502
lthumb 16.2496 49.4129
rfemur -71.6641 -8.65414 6.80544
rtibia 58.7165
rfoot -24.2884 -3.95159
rtoes -14.9331
lfemur -81.7688 5.24116 -12.8016
ltibia 41.3322
lfoot 17.4461 -3.64304
ltoes 16.6918
291
root 20.7318 16.7407 -28.8197 42.0599 -3.68017 7.41731
lowerback 31.2351 0.483817 0.793977
upperback -1.73048 1.00732 0.404528
thorax -18.5782 0.366043 -0.428248
lowerneck 11.0999 15.7657 16.2454
upperneck -31.0281 18.3109 -35.89
head -5.14926 11.8948 -16.307
rclavicle -1.27222e-014 -1.11319e-014
rhumerus -52.3721 -23.7113 -50.8608
rradius 20.481
rwrist 13.3661
rhand -39.7022 27.7902
rfingers 7.12502
rthumb -12.6807 -1.80481
lclavicle -1.27222e-014 -1.11319e-014
lhumerus -59.528 4.52872 88.2396
lradius 31.0343
lwrist 20.9481
lhand -8.40388 19.7019
lfingers 7.12502
lthumb 17.5202 48.9324
rfemur -72.0906 -8.55834 7.37759
rtibia 59.3285
rfoot -24.5446 -3.52945
rtoes -14.3908
lfemur -81.5394 5.56401 -12.9255
ltibia 41.3386
lfoot 17.8216 -3.74438
ltoes 17.3542
292
root 20.7478 16.6811 -28.7929 42.6305 -3.89287 7.41527
lowerback 30.7693 0.443252 0.887715
upperback -1.77892 0.962025 0.285768
thorax -18.412 0.332891 -0.588996
lowerneck 11.7664 15.7463 16.0521
upperneck -31.5761 18.243 -35.9101
head -5.48513 11.9326 -16.4996
rclavicle 1.11319e-014 1.98785e-014
rhumerus -51.8979 -22.9277 -52.9324
rradius 20.8708
rwrist 12.6554
rhand -37.9347 27.2361
rfingers 7.12502
rthumb -10.9763 -2.45694
lclavicle 1.11319e-014 1.98785e-014
lhumerus -59.7077 4.16456 89.5819
lradius 31.3138
lwrist 20.2635
lhand -6.62614 19.3578
lfingers 7.12502
lthumb 19.2304 48.427
rfemur -73.1585 -8.9941 7.6186
rtibia 59.9871
rfoot -24.9043 -2.93835
rtoes -13.0151
lfemur -82.0468 5.37787 -13.1288
ltibia 41.5604
lfoot 17.5686 -3.13761
ltoes 23.4078
293
root 20.7656 16.6184 -28.7643 43.1524 -4.31198 7.17601
lowerback 30.4468 0.424236 0.871861
upperback -1.84064 0.911575 0.197713
thorax -18.3326 0.308865 -0.654387
lowerneck 12.2087 15.7914 15.898
upperneck -31.8082 18.2818 -35.9285
head -5.64775 11.9994 -16.5888
rclavicle -4.77083e-015 -1.27222e-014
rhumerus -51.2236 -22.0817 -55.0038
rradius 21.1112
rwrist 12.3295
rhand -36.1663 27.0309
rfingers 7.12502
rthumb -9.27027 -2.74534
lclavicle -4.77083e-015 -1.27222e-014
lhumerus -59.7292 4.23221 90.4505
lradius 31.2879
lwrist 21.1547
lhand -4.90016 18.7129
lfingers 7.12502
lthumb 20.8893 47.6082
rfemur -74.1795 -9.10742 7.93522
rtibia 60.5421
rfoot -25.2951 -2.73812
rtoes -13.0915
lfemur -82.3724 5.39842 -13.1573
ltibia 42.0092
lfoot 15.7961 -2.76594
ltoes 29.2571
294
root 20.7777 16.5629 -28.7293 43.5658 -4.62798 6.61663
lowerback 30.2585 0.449017 0.972851
upperback -1.87897 0.976528 0.186222
thorax -18.2861 0.325952 -0.749454
lowerneck 12.2726 15.815 16.3571
upperneck -31.5433 18.4047 -36.2569
head -5.42331 12.0612 -16.718
rclavicle -2.38542e-015 -4.77083e-015
rhumerus -50.6504 -21.4017 -56.9053
rradius 21.3236
rwrist 12.2487
rhand -34.0332 26.8864
rfingers 7.12502
rthumb -7.21166 -2.97069
lclavicle -2.38542e-015 -4.77083e-015
lhumerus -59.7211 4.10904 91.2569
lradius 31.4115
lwrist 24.2946
lhand -3.51069 18.2675
lfingers 7.12502
lthumb 22.2238 47.0099
rfemur -74.9926 -8.96947 8.62382
rtibia 60.9985
rfoot -25.6862 -2.77533
rtoes -13.8935
lfemur -82.523 5.67632 -13.0685
ltibia 42.6064
lfoot 12.6276 -3.57929
ltoes 25.1513
295
root 20.7892 16.5289 -28.6871 43.882 -4.86309 6.18552
lowerback 30.1118 0.527527 1.07366
upperback -1.88828 1.11542 0.195428
thorax -18.2222 0.375614 -0.852974
lowerneck 11.9757 15.8431 16.5748
upperneck -31.0668 18.5078 -36.3263
head -5.15048 12.0766 -16.6258
rclavicle 1.27222e-014 1.03368e-014
rhumerus -50.3334 -21.3569 -58.0519
rradius 21.3499
rwrist 12.8599
rhand -31.626 27.9306
rfingers 7.12502
rthumb -4.88764 -1.99298
lclavicle 1.27222e-014 1.03368e-014
lhumerus -59.7979 4.13568 91.6572
lradius 31.6441
lwrist 26.652
lhand -2.00172 18.0443
lfingers 7.12502
lthumb 23.6717 46.6068
rfemur -75.5364 -8.92772 9.20839
rtibia 61.3693
rfoot -26.1373 -2.47253
rtoes -13.1657
lfemur -82.648 5.91413 -13.2668
ltibia 43.261
lfoot 9.3112 -4.88465
ltoes 10.6444
296
root 20.8019 16.5068 -28.6477 44.1895 -4.98787 5.83872
lowerback 30.0457 0.566168 1.24591
upperback -1.90552 1.23206 0.220417
thorax -18.2059 0.409559 -0.969369
lowerneck 11.6364 15.8483 16.4848
upperneck -30.6626 18.5086 -36.2737
head -4.98635 12.0527 -16.475
rclavicle -6.36111e-015 -3.18055e-015
rhumerus -50.0512 -21.2813 -58.9706
rradius 21.4108
rwrist 13.189
rhand -28.7284 29.6565
rfingers 7.12502
rthumb -2.08942 -0.313039
lclavicle -6.36111e-015 -3.18055e-015
lhumerus -59.803 4.13606 91.8877
lradius 31.5461
lwrist 27.721
lhand -0.421367 18.1382
lfingers 7.12502
lthumb 25.1867 46.4963
rfemur -75.9161 -8.91145 9.68373
rtibia 61.6395
rfoot -26.4313 -2.37088
rtoes -12.9558
lfemur -82.8594 6.0474 -13.4627
ltibia 43.7951
lfoot 6.69568 -5.92104
ltoes -2.53751
297
root 20.866 16.4265 -28.6367 45.5192 -4.74025 5.74506
lowerback 28.9797 0.144492 2.10061
upperback -2.21601 0.941182 0.0653715
thorax -18.0541 0.197932 -1.48291
lowerneck 11.8102 15.9079 16.6223
upperneck -30.7298 18.6065 -36.4241
head -4.96562 12.1211 -16.5673
rclavicle 3.18055e-015 3.97569e-015
rhumerus -49.7981 -20.631 -60.3127
rradius 21.7432
rwrist 12.7367
rhand -25.5712 30.105
rfingers 7.12502
rthumb 0.959898 0.127404
lclavicle 3.18055e-015 3.97569e-015
lhumerus -60.0166 3.9702 92.0337
lradius 31.5521
lwrist 28.42
lhand 1.01354 19.1911
lfingers 7.12502
lthumb 26.5608 47.3488
rfemur -77.6969 -9.76041 10.3659
rtibia 61.9784
rfoot -26.2782 -2.33198
rtoes -13.9511
lfemur -84.5192 5.59193 -13.5133
ltibia 44.1563
lfoot 4.53459 -5.7997
ltoes -9.03624
298
root 20.9035 16.3815 -28.6103 46.1701 -4.68697 5.57015
lowerback 28.7314 -0.141338 2.50566
upperback -2.4051 0.688594 -0.0244152
thorax -18.1671 0.0434255 -1.70145
lowerneck 11.9253 16.0712 16.5665
upperneck -30.9338 18.8134 -36.4033
head -4.99869 12.239 -16.5526
rclavicle -2.38542e-015 5.56597e-015
rhumerus -49.5445 -19.93 -61.6502
rradius 22.0767
rwrist 12.4301
rhand -22.9695 30.535
rfingers 7.12502
rthumb 3.47254 0.5835
lclavicle -2.38542e-015 5.56597e-015
lhumerus -60.2794 4.09456 91.8203
lradius 31.4098
lwrist 28.0433
lhand 2.45095 20.3607
lfingers 7.12502
lthumb 27.9358 48.3025
rfemur -78.5286 -10.0752 10.8332
rtibia 62.1148
rfoot -26.278 -2.31184
rtoes -13.8784
lfemur -85.1321 5.34298 -13.5376
ltibia 44.281
lfoot 2.47674 -5.0172
ltoes -12.241
